:SAMPLES-PER-SECOND 30
:FRAME-RANGE 1-4244
:FULLY-SPECIFIED
:DEGREES
3714
root  -79.5584 39.131 -6.30307 3.22571 64.4344 2.34702
RightUpLeg  12.1795 -21.4921 -12.2185
RightLeg  10.2798 -22.3741 2.1225
RightFoot  -10.2067 -0.265342 19.5596
RightToes  -3.31784e-009 0 -3.6325e-017
Spine  6.95002 -0.167868 2.24904
Spine1  -0.00224175 0.251721 -1.34512
HEad  5.43767 17.5803 -10.3142
LeftShoulder1  1.03357 0.781288 -31.8967
LeftArm  15.9008 16.5473 -32.1339
LeftForeArm  1.50879 -14.1647 -12.3671
LeftHand  0.372819 -0.806885 -6.93727
RightShoulder  4.90201 5.86135 45.8265
RightArm  15.5564 -5.01933 14.0486
RightForeArm  12.5226 5.12646 16.1953
RightHand  0.478857 3.57611 5.94134
LeftUpLeg  -14.7431 5.18615 -2.66924
LeftLeg  -1.38364 34.8808 -4.64083
LeftFoot  6.87136 -1.42762 8.62721
LeftToes  1.0277e-010 -6.71454e-011 3.04227e-011
3715
root  -78.6903 39.0599 -6.25022 5.14832 67.5638 5.08827
RightUpLeg  13.2683 -34.5957 -17.4098
RightLeg  16.5926 -9.70782 -2.54654
RightFoot  -9.42303 -0.485368 24.7568
RightToes  -3.31784e-009 0 -3.6325e-017
Spine  7.34772 -0.366719 0.225603
Spine1  -0.097543 -0.0622749 -1.69686
HEad  6.25442 17.7795 -9.42082
LeftShoulder1  1.03972 0.799563 -32.2465
LeftArm  16.0386 15.7698 -31.4172
LeftForeArm  1.00405 -13.6363 -12.8359
LeftHand  0.354876 -0.798978 -6.60965
RightShoulder  4.74436 5.44736 46.4244
RightArm  14.8087 -5.34654 14.3366
RightForeArm  13.8346 4.25692 16.3813
RightHand  0.475026 3.63446 5.84945
LeftUpLeg  -14.4975 4.0187 -4.69344
LeftLeg  2.47137 32.9191 -2.36885
LeftFoot  5.13339 -1.30248 8.76235
LeftToes  1.0277e-010 -6.71454e-011 3.04227e-011
3716
root  -77.8797 38.95 -6.23242 7.47998 70.4331 7.7296
RightUpLeg  10.3846 -31.4268 -17.8047
RightLeg  25.096 -11.5963 -6.07728
RightFoot  -6.97888 -1.30399 32.1493
RightToes  -3.31784e-009 0 -3.6325e-017
Spine  7.33527 -0.308926 -1.4677
Spine1  -0.0255169 -0.160339 -2.15782
HEad  7.27401 17.5727 -8.80215
LeftShoulder1  1.04433 0.773039 -32.1765
LeftArm  13.1832 14.9391 -31.5345
LeftForeArm  3.0243 -12.1696 -13.651
LeftHand  0.339815 -0.611251 -6.54703
RightShoulder  4.59349 5.18156 46.3234
RightArm  13.5961 -5.92668 15.0481
RightForeArm  15.193 3.46684 16.4268
RightHand  0.508363 3.81852 6.13799
LeftUpLeg  -14.4194 3.97629 -6.10234
LeftLeg  5.73997 30.1021 -1.38939
LeftFoot  2.78613 -0.96745 7.65846
LeftToes  1.0277e-010 -6.71454e-011 3.04227e-011
3717
root  -77.0471 38.9707 -6.24682 8.02539 72.6728 8.50751
RightUpLeg  5.34404 -25.4893 -16.5945
RightLeg  35.5681 -12.657 -9.79514
RightFoot  -0.597347 -2.64184 27.5455
RightToes  -3.31784e-009 0 -3.6325e-017
Spine  7.47993 -0.141577 -1.85666
Spine1  -0.0969857 0.0557911 -2.69773
HEad  8.0673 17.0074 -8.29834
LeftShoulder1  1.04265 0.758956 -31.9191
LeftArm  13.126 14.4564 -31.8066
LeftForeArm  2.93348 -12.3745 -13.4917
LeftHand  0.363836 -0.785897 -6.79407
RightShoulder  4.5987 5.25168 45.9948
RightArm  14.83 -6.58959 15.9401
RightForeArm  14.2485 4.32697 16.242
RightHand  0.536823 3.81255 6.50007
LeftUpLeg  -13.2587 4.00157 -6.75945
LeftLeg  6.63915 27.9089 -1.39552
LeftFoot  1.38314 -0.902995 8.00909
LeftToes  1.0277e-010 -6.71454e-011 3.04227e-011
3718
root  -76.2557 38.9945 -6.26116 8.57996 74.8037 9.37509
RightUpLeg  -0.295977 -19.9778 -15.3143
RightLeg  45.492 -11.6415 -12.6901
RightFoot  8.95895 -2.67685 15.2185
RightToes  -3.31784e-009 0 -3.6325e-017
Spine  7.7603 -0.096599 -2.20215
Spine1  0.0337901 0.173333 -3.19868
HEad  8.20111 16.669 -8.20261
LeftShoulder1  1.04387 0.757916 -31.9491
LeftArm  16.1461 13.869 -31.589
LeftForeArm  0.959836 -13.9197 -12.5895
LeftHand  0.38762 -0.978952 -7.0005
RightShoulder  4.86078 5.72266 46.1344
RightArm  16.8293 -6.68251 16.4593
RightForeArm  13.1528 5.77175 15.8887
RightHand  0.563324 3.99146 6.68991
LeftUpLeg  -11.879 4.1373 -7.29929
LeftLeg  7.18567 25.8815 -1.61413
LeftFoot  -0.00343069 -0.875251 8.79853
LeftToes  1.0277e-010 -6.71454e-011 3.04227e-011
3719
root  -75.5865 38.8526 -6.2565 12.1885 77.3638 13.3489
RightUpLeg  -4.40691 -15.0299 -14.8158
RightLeg  52.0782 -6.86814 -9.72037
RightFoot  9.37007 -2.34923 13.1593
RightToes  -3.31784e-009 0 -3.6325e-017
Spine  8.16805 -0.158452 -3.73965
Spine1  0.481992 -0.109922 -3.53198
HEad  8.18817 16.1393 -8.41173
LeftShoulder1  1.07817 0.691855 -32.2768
LeftArm  19.0962 12.8595 -31.0771
LeftForeArm  -1.00086 -15.2389 -11.7406
LeftHand  0.378805 -1.07576 -6.72627
RightShoulder  5.15256 6.22021 46.405
RightArm  19.1325 -6.43275 16.8821
RightForeArm  12.173 7.61614 15.2561
RightHand  0.554967 4.1421 6.47229
LeftUpLeg  -11.597 4.22343 -8.33533
LeftLeg  9.84078 23.26 -1.04488
LeftFoot  -2.12141 -0.673267 8.49204
LeftToes  1.0277e-010 -6.71454e-011 3.04227e-011
3720
root  -74.9019 38.7759 -6.25998 16.2795 80.6251 17.7976
RightUpLeg  -7.47325 -11.0846 -13.8246
RightLeg  56.2871 -3.52246 -6.09085
RightFoot  6.76366 -2.33535 14.8757
RightToes  -3.31784e-009 0 -3.6325e-017
Spine  8.47525 -0.439286 -4.70974
Spine1  0.930024 -0.639255 -3.46797
HEad  8.40497 15.5008 -8.85077
LeftShoulder1  1.1271 0.584557 -32.5447
LeftArm  19.6383 11.3054 -30.8998
LeftForeArm  -0.950423 -15.1995 -11.7953
LeftHand  0.337866 -0.986318 -6.08367
RightShoulder  5.21691 6.37253 46.2549
RightArm  20.8692 -6.06468 17.5081
RightForeArm  10.7179 9.56993 14.3689
RightHand  0.540658 4.10779 6.32391
LeftUpLeg  -10.9164 3.69981 -9.18965
LeftLeg  11.8297 20.4822 -0.164721
LeftFoot  -3.82245 -0.51628 8.19355
LeftToes  1.0277e-010 -6.71454e-011 3.04227e-011
3721
root  -74.19 38.7397 -6.25542 22.5435 83.7186 24.349
RightUpLeg  -10.4263 -7.14509 -12.3654
RightLeg  58.92 -2.74776 -5.3822
RightFoot  5.25908 -2.24786 15.5698
RightToes  -3.31784e-009 0 -3.6325e-017
Spine  8.63061 -0.515565 -5.25722
Spine1  1.23975 -0.883545 -3.40883
HEad  9.06701 14.404 -8.81615
LeftShoulder1  1.1663 0.469548 -32.3757
LeftArm  17.127 9.48418 -31.3959
LeftForeArm  1.63488 -13.8643 -12.6301
LeftHand  0.315553 -0.996936 -5.66559
RightShoulder  5.04726 6.05818 46.2232
RightArm  23.8992 -5.43322 17.7075
RightForeArm  6.71363 11.8884 13.3178
RightHand  0.530725 4.03773 6.25405
LeftUpLeg  -9.92676 3.60419 -9.55511
LeftLeg  13.2268 17.4925 0.0717122
LeftFoot  -5.43869 -0.384365 8.07788
LeftToes  1.0277e-010 -6.71454e-011 3.04227e-011
3722
root  -73.4407 38.756 -6.26004 36.2489 86.4356 38.1721
RightUpLeg  -13.3494 -3.06013 -10.6895
RightLeg  59.9492 -3.95734 -7.84435
RightFoot  4.15661 -2.02305 14.9994
RightToes  -3.31784e-009 0 -3.6325e-017
Spine  8.57862 -0.542732 -5.64293
Spine1  1.33222 -1.00873 -3.18514
HEad  9.93617 13.0972 -8.15827
LeftShoulder1  1.15939 0.448776 -31.8883
LeftArm  15.1049 8.34247 -32.2674
LeftForeArm  3.276 -13.3776 -12.7938
LeftHand  0.316315 -1.06066 -5.61633
RightShoulder  5.12436 6.22852 46.1034
RightArm  25.4759 -5.33721 17.9647
RightForeArm  3.85202 13.6319 12.2634
RightHand  0.514189 3.96638 6.10245
LeftUpLeg  -8.55071 3.75664 -9.57234
LeftLeg  13.6273 14.5435 -0.232576
LeftFoot  -6.75699 -0.270313 7.75907
LeftToes  1.0277e-010 -6.71454e-011 3.04227e-011
3723
root  -72.6715 38.8076 -6.30204 93.8271 88.2285 95.7899
RightUpLeg  -15.9309 1.06345 -9.16001
RightLeg  59.232 -5.63917 -10.5853
RightFoot  2.85141 -1.67919 13.5874
RightToes  -3.31784e-009 0 -3.6325e-017
Spine  8.57367 -0.725627 -5.94954
Spine1  1.20019 -1.27262 -2.68706
HEad  10.5793 11.8015 -7.43853
LeftShoulder1  1.14931 0.449016 -31.5608
LeftArm  15.5951 7.79289 -32.9142
LeftForeArm  2.79006 -14.1657 -12.2055
LeftHand  0.311761 -1.10107 -5.38358
RightShoulder  5.12815 6.27473 45.9135
RightArm  27.1729 -4.97956 18.2591
RightForeArm  1.91124 15.1263 11.2163
RightHand  0.505895 3.92901 6.02666
LeftUpLeg  -6.8504 3.9382 -9.41028
LeftLeg  13.2635 11.52 -0.827455
LeftFoot  -7.77963 -0.19761 7.85167
LeftToes  1.0277e-010 -6.71454e-011 3.04227e-011
3724
root  -71.8891 38.8842 -6.38332 157.094 86.4074 159.155
RightUpLeg  -17.9159 4.76185 -7.93302
RightLeg  56.6606 -7.23917 -12.0798
RightFoot  1.55914 -1.35024 11.9972
RightToes  -3.31784e-009 0 -3.6325e-017
Spine  8.57643 -1.01373 -6.04096
Spine1  1.23672 -1.60271 -2.1227
HEad  10.6504 10.0551 -6.73048
LeftShoulder1  1.1806 0.353313 -31.4119
LeftArm  19.0457 7.36364 -33.258
LeftForeArm  0.316356 -15.8833 -11.0214
LeftHand  0.308554 -1.18696 -5.35742
RightShoulder  5.10679 6.28964 45.644
RightArm  27.6504 -4.59509 18.5796
RightForeArm  1.6274 16.1018 10.3777
RightHand  0.519541 4.20723 5.99705
LeftUpLeg  -4.9636 4.14719 -9.08049
LeftLeg  12.7476 8.25599 -1.48709
LeftFoot  -8.55675 -0.140587 7.89373
LeftToes  1.0277e-010 -6.71454e-011 3.04227e-011
3725
root  -71.1061 38.9322 -6.49967 170.264 83.4402 172.432
RightUpLeg  -19.4834 7.95084 -7.13088
RightLeg  52.4403 -8.51695 -12.0393
RightFoot  0.406821 -1.22852 11.928
RightToes  -3.31784e-009 0 -3.6325e-017
Spine  8.64845 -1.29243 -5.88192
Spine1  1.27814 -1.85013 -1.76004
HEad  10.5402 7.71472 -6.08261
LeftShoulder1  1.22292 0.229742 -31.2914
LeftArm  21.5383 6.73451 -33.5459
LeftForeArm  -0.451023 -16.8679 -10.2437
LeftHand  0.295674 -1.35534 -4.98382
RightShoulder  5.08511 6.27665 45.5061
RightArm  28.1911 -4.30309 18.6779
RightForeArm  0.557733 16.9782 9.65594
RightHand  0.521464 4.2129 6.01629
LeftUpLeg  -3.15881 4.32317 -8.73947
LeftLeg  12.4159 5.14522 -2.03651
LeftFoot  -9.33467 -0.086557 8.14094
LeftToes  1.0277e-010 -6.71454e-011 3.04227e-011
3726
root  -70.3176 38.9457 -6.64436 174.061 80.6728 176.305
RightUpLeg  -20.773 10.3078 -6.61145
RightLeg  46.9901 -9.99009 -11.5669
RightFoot  -0.516941 -1.14487 12.0056
RightToes  -3.31784e-009 0 -3.6325e-017
Spine  8.6501 -1.48673 -5.56041
Spine1  1.44735 -1.92951 -1.68241
HEad  10.2255 4.77533 -5.51292
LeftShoulder1  1.23312 0.181191 -31.0516
LeftArm  23.2033 6.07406 -33.9069
LeftForeArm  -0.760058 -17.4304 -9.77186
LeftHand  0.276017 -1.40291 -4.60707
RightShoulder  5.11715 6.33258 45.533
RightArm  29.5371 -4.21876 18.6343
RightForeArm  -1.5591 18.0342 8.84966
RightHand  0.492957 4.1074 5.74333
LeftUpLeg  -1.46045 4.3642 -8.4979
LeftLeg  12.262 2.3192 -2.4189
LeftFoot  -10.231 -0.0193594 8.34644
LeftToes  1.0277e-010 -6.71454e-011 3.04227e-011
3727
root  -69.5082 38.9615 -6.83002 176.184 78.1751 178.54
RightUpLeg  -21.5175 11.6094 -6.0728
RightLeg  40.1924 -10.9954 -10.0546
RightFoot  -1.03 -1.12356 12.33
RightToes  -3.31784e-009 0 -3.6325e-017
Spine  8.64868 -1.63093 -5.00305
Spine1  1.64195 -1.94456 -1.56506
HEad  9.9633 1.30958 -5.01203
LeftShoulder1  1.24239 0.139951 -30.8716
LeftArm  21.7924 5.54275 -34.2902
LeftForeArm  1.10866 -16.9459 -10.0798
LeftHand  0.282897 -1.59262 -4.57774
RightShoulder  5.17873 6.4637 45.4717
RightArm  28.9285 -3.98909 18.6881
RightForeArm  -0.901962 17.8049 9.00221
RightHand  0.50725 4.29312 5.79115
LeftUpLeg  0.330995 4.44548 -8.16314
LeftLeg  12.0085 -0.0208803 -2.66731
LeftFoot  -11.1786 0.055672 8.21044
LeftToes  1.0277e-010 -6.71454e-011 3.04227e-011
